HIERARCHY
ROOT Hips
{
	OFFSET 0.000000 0.000000 0.000000
	CHANNELS 6 Xposition Yposition Zposition Zrotation Yrotation Xrotation
	JOINT LHipJoint
	{
		OFFSET 0.000000 0.000000 0.000000
		CHANNELS 3 Zrotation Yrotation Xrotation
		JOINT LeftUpLeg
		{
			OFFSET 1.363060 -1.794630 0.839290
			CHANNELS 3 Zrotation Yrotation Xrotation
			JOINT LeftLeg
			{
				OFFSET 2.448110 -6.726130 0.000000
				CHANNELS 3 Zrotation Yrotation Xrotation
				JOINT LeftFoot
				{
					OFFSET 2.562200 -7.039590 0.000000
					CHANNELS 3 Zrotation Yrotation Xrotation
					JOINT LeftToeBase
					{
						OFFSET 0.157640 -0.433110 2.322550
						CHANNELS 3 Zrotation Yrotation Xrotation
						End Site
						{
							OFFSET 0.000000 0.000000 0.000000
						}
					}
				}
			}
		}
	}
	JOINT RHipJoint
	{
		OFFSET 0.000000 0.000000 0.000000
		CHANNELS 3 Zrotation Yrotation Xrotation
		JOINT RightUpLeg
		{
			OFFSET -1.305520 -1.794630 0.839290
			CHANNELS 3 Zrotation Yrotation Xrotation
			JOINT RightLeg
			{
				OFFSET -2.542530 -6.985550 0.000000
				CHANNELS 3 Zrotation Yrotation Xrotation
				JOINT RightFoot
				{
					OFFSET -2.568260 -7.056230 0.000000
					CHANNELS 3 Zrotation Yrotation Xrotation
					JOINT RightToeBase
					{
						OFFSET -0.164730 -0.452590 2.363150
						CHANNELS 3 Zrotation Yrotation Xrotation
						End Site
						{
							OFFSET 0.000000 0.000000 0.000000
						}
					}
				}
			}
		}
	}
	JOINT LowerBack
	{
		OFFSET 0.000000 0.000000 0.000000
		CHANNELS 3 Zrotation Yrotation Xrotation
		JOINT Spine
		{
			OFFSET 0.028270 2.035590 -0.193380
			CHANNELS 3 Zrotation Yrotation Xrotation
			JOINT Spine1
			{
				OFFSET 0.056720 2.048850 -0.042750
				CHANNELS 3 Zrotation Yrotation Xrotation
				JOINT Neck
				{
					OFFSET 0.000000 0.000000 0.000000
					CHANNELS 3 Zrotation Yrotation Xrotation
					JOINT Neck1
					{
						OFFSET -0.054170 1.746240 0.172020
						CHANNELS 3 Zrotation Yrotation Xrotation
						JOINT Head
						{
							OFFSET 0.104070 1.761360 -0.123970
							CHANNELS 3 Zrotation Yrotation Xrotation
							End Site
							{
								OFFSET 0.000000 0.000000 0.000000
							}
						}
					}
				}
				JOINT LeftShoulder
				{
					OFFSET 0.000000 0.000000 0.000000
					CHANNELS 3 Zrotation Yrotation Xrotation
					JOINT LeftArm
					{
						OFFSET 3.362410 1.200890 -0.311210
						CHANNELS 3 Zrotation Yrotation Xrotation
						JOINT LeftForeArm
						{
							OFFSET 4.983000 -0.000000 -0.000000
							CHANNELS 3 Zrotation Yrotation Xrotation
							JOINT LeftHand
							{
								OFFSET 3.483560 -0.000000 -0.000000
								CHANNELS 3 Zrotation Yrotation Xrotation
								JOINT LeftFingerBase
								{
									OFFSET 0.000000 0.000000 0.000000
									CHANNELS 3 Zrotation Yrotation Xrotation
									JOINT LeftHandIndex1
									{
										OFFSET 0.715260 -0.000000 -0.000000
										CHANNELS 3 Zrotation Yrotation Xrotation
										End Site
										{
											OFFSET 0.000000 0.000000 0.000000
										}
									}
								}
								JOINT LThumb
								{
									OFFSET 0.000000 0.000000 0.000000
									CHANNELS 3 Zrotation Yrotation Xrotation
									End Site
									{
										OFFSET 0.000000 0.000000 0.000000
									}
								}
							}
						}
					}
				}
				JOINT RightShoulder
				{
					OFFSET 0.000000 0.000000 0.000000
					CHANNELS 3 Zrotation Yrotation Xrotation
					JOINT RightArm
					{
						OFFSET -3.136600 1.374050 -0.404650
						CHANNELS 3 Zrotation Yrotation Xrotation
						JOINT RightForeArm
						{
							OFFSET -5.241900 -0.000000 -0.000000
							CHANNELS 3 Zrotation Yrotation Xrotation
							JOINT RightHand
							{
								OFFSET -3.444170 -0.000000 -0.000000
								CHANNELS 3 Zrotation Yrotation Xrotation
								JOINT RightFingerBase
								{
									OFFSET 0.000000 0.000000 0.000000
									CHANNELS 3 Zrotation Yrotation Xrotation
									JOINT RightHandIndex1
									{
										OFFSET -0.622530 -0.000000 -0.000000
										CHANNELS 3 Zrotation Yrotation Xrotation
										End Site
										{
											OFFSET 0.000000 0.000000 0.000000
										}
									}
								}
								JOINT RThumb
								{
									OFFSET 0.000000 0.000000 0.000000
									CHANNELS 3 Zrotation Yrotation Xrotation
									End Site
									{
										OFFSET 0.000000 0.000000 0.000000
									}
								}
							}
						}
					}
				}
			}
		}
	}
}
MOTION
Frames: 9
Frame Time: 0.008333
0.000670 -0.005583 0.089673 -0.057012 0.039711 0.138232 -0.065622 -0.037431 -0.045612 0.226699 -0.175620 0.002732 -0.400199 -0.413967 -1.532845 -0.043848 0.165596 -0.146716 -0.117292 -0.991095 -2.748121 0.029841 -0.004241 0.029869 0.034703 -0.047923 0.308101 0.045898 0.085874 -0.253691 0.064493 -0.213103 -0.155989 0.021642 0.149979 -0.417474 0.061275 0.015123 -0.003254 0.005630 0.027895 -0.116930 -0.031829 0.011138 -0.061389 0.000738 0.009548 0.151585 -0.031369 0.002261 -0.082612 -0.009644 -0.004766 -0.053992 0.002826 -0.000558 0.001247 -0.032603 0.246878 -0.044974 -0.047635 0.073313 0.017696 0.001618 0.003896 -0.168388 -0.039162 -0.302856 -0.169939 0.000000 0.000000 0.000000 0.065150 -0.341728 0.026183 -0.000467 -0.001073 -0.001187 -0.079152 0.082440 0.293675 -0.130839 0.194224 -0.060034 -0.003809 0.016562 -0.403264 0.065930 -0.181914 0.092454 -0.000000 0.000000 0.000000 0.031622 -0.207896 0.005438
-0.027734 -0.200827 -0.552142 -0.016875 -0.403460 -0.558942 -0.553225 -0.220846 -0.197495 -0.468984 -0.745964 -0.363739 -1.220514 -0.821578 -2.500061 -0.248590 0.083721 -0.203969 -0.127329 -1.082629 -3.429003 -0.180492 -0.106410 -0.236606 -0.424429 -0.331696 -0.302057 -0.100822 -0.155323 -0.731425 -0.075460 -1.095437 0.413344 -0.024057 -0.021250 -0.950061 0.049846 -0.021706 -0.178902 -0.037318 0.003807 -0.239615 -0.103930 -0.018385 -0.184905 -0.152144 -0.098814 -0.078250 -0.082218 -0.136676 -0.218127 -0.165093 -0.004809 -0.070285 -0.062745 -0.065386 -0.013532 -0.663689 0.200446 -0.674091 -0.059732 -0.066672 -0.013264 -0.002065 -0.083621 -1.397340 -0.639626 -1.282718 -0.136421 -0.047425 0.000000 0.000000 -1.387633 -1.102954 -0.508927 -0.495843 0.082046 -0.057141 -0.775626 -0.372823 -2.464242 -1.109645 -0.090345 -2.361156 -0.128251 0.071418 -0.299574 2.970564 -1.099184 0.662853 0.059254 0.000000 0.000000 2.737955 0.979752 1.663175
-0.129411 -0.354223 -0.994411 0.202018 -0.559945 -0.897440 -0.663430 -0.275118 -0.201998 -0.771647 -1.016998 1.105595 -1.916680 -0.993629 -2.842864 -0.385376 0.653784 -0.120740 -0.109997 -1.230912 -3.693264 -0.064498 -0.084641 -0.316857 -0.329973 -0.193190 -0.286658 -0.102709 -0.196228 -0.529541 -0.058715 -1.733310 1.637934 0.017927 0.009558 -1.293735 0.138495 0.003403 -0.168666 -0.020466 0.050030 -0.234637 -0.096412 -0.007314 -0.123330 -0.161368 -0.106113 -0.101350 -0.049808 -0.124565 -0.137959 -0.254319 0.043913 -0.020064 -0.062970 -0.068852 -0.014312 -0.863873 0.311461 -1.229973 0.007649 -0.108243 -0.026049 0.024987 -0.119582 -1.643012 -0.696621 -1.769921 0.125586 -0.080954 0.000000 0.000000 -2.685318 -1.157431 -0.112535 -0.993627 0.278559 -0.090251 -1.386287 -0.352044 -5.227453 -1.219652 0.676933 -4.781766 -0.272721 0.120545 -0.478541 6.499598 -1.998966 2.331609 0.160647 0.000000 0.000000 6.121134 2.402126 3.643196
-0.252285 -0.527815 -1.437392 0.432503 -0.720438 -1.190172 -0.668021 -0.276231 -0.144996 -0.846248 -1.135070 2.869306 -2.575930 -1.097458 -3.035215 -0.509376 1.256570 -0.024145 -0.086541 -1.402709 -4.031747 0.023870 -0.078697 -0.422464 -0.305538 -0.142383 -0.479626 -0.144362 -0.305102 -0.565759 -0.100463 -2.662707 2.489259 0.019744 -0.068387 -1.911868 0.152971 -0.011505 -0.285187 -0.044190 0.043412 -0.318427 -0.145103 -0.023825 -0.171625 -0.272248 -0.186199 -0.254586 -0.073424 -0.196998 -0.178605 -0.413218 0.051855 -0.060783 -0.164624 -0.146140 -0.033378 -1.408354 0.313435 -2.041443 0.009223 -0.257447 -0.063742 0.045585 -0.169533 -2.096265 -0.888535 -2.499492 0.281049 -0.140615 0.000000 0.000000 -4.676482 -1.623637 0.047778 -1.532646 0.471880 -0.145146 -2.445587 -0.462448 -8.270351 -1.487378 1.412638 -7.266505 -0.411347 0.166897 -0.785128 9.047419 -3.333237 3.289459 0.249602 0.000000 0.000000 8.848173 3.382837 4.817130
-0.075057 -0.410359 -0.536088 1.061255 -0.222541 -0.897601 -0.088925 0.054103 0.260380 -0.026318 -0.538422 5.312308 -3.079894 -0.663984 -1.835295 -0.491643 2.566274 0.991962 0.082263 -1.337543 -3.441992 0.538464 0.083040 -0.263029 0.698264 0.339399 0.010488 -0.117497 -0.198230 0.375669 0.080974 -2.240141 5.340219 0.235362 0.379286 -0.645373 0.524201 0.171976 0.221205 0.126959 0.285785 0.037408 0.082120 0.109472 0.289411 0.065410 0.057305 0.204474 0.180100 0.197715 0.453632 -0.250109 0.180606 0.175809 0.049263 0.034297 0.012315 -0.397507 0.864218 -2.197152 0.024630 -0.323753 -0.078589 0.080198 -0.128800 -1.261067 -0.346209 -1.584770 1.133403 -0.086821 0.000000 0.000000 -3.825413 1.333763 3.445344 -1.365662 1.105011 -0.076612 -1.697619 0.669356 -8.850089 -0.588037 3.412283 -9.502764 -0.504212 0.304405 -0.385715 17.181431 -2.465178 7.914807 0.443391 0.000000 0.000000 17.406895 7.633555 12.199944
0.031274 -0.386434 0.015945 1.552287 -0.037570 -0.640812 0.483765 0.358521 0.616601 0.759763 0.041491 7.871584 -3.461531 -0.138286 -0.483249 -0.402883 4.255771 2.472426 0.321147 -0.792448 -1.128113 1.485512 0.404159 0.044094 2.988705 1.268392 1.195230 0.097814 0.104774 1.952838 0.420806 -1.606515 8.941429 0.583261 1.178853 1.717550 0.985296 0.393581 0.845973 0.343106 0.563141 0.450414 0.345139 0.266942 0.756242 0.408855 0.304355 0.626894 0.397246 0.545415 1.026577 -0.013642 0.319886 0.460972 0.315224 0.253310 0.060172 0.742960 1.466652 -1.299570 0.401652 0.038809 0.011467 0.138437 -0.020356 0.362389 0.639461 -0.651939 1.924084 -0.019305 0.000000 0.000000 -2.757863 4.634766 7.261494 -1.336216 1.753695 -0.010478 -1.081394 2.338868 -7.794449 1.300932 6.381790 -11.376683 -0.578345 0.473880 0.287671 28.336521 -0.894135 13.512529 0.667041 0.000000 0.000000 22.542397 9.970478 16.462517
-0.016214 -0.671865 -0.558654 1.815073 -0.457015 -1.106501 0.466053 0.292956 0.625781 0.582692 -0.178445 9.197987 -4.097564 -0.271093 -0.905884 -0.612318 5.210227 2.690521 0.348324 -0.864064 -0.642953 1.634601 0.426155 -0.241945 3.544519 1.286256 0.831558 -0.004359 -0.109915 2.002607 0.406173 -2.844639 10.054010 0.607712 1.133531 2.454161 0.932282 0.400731 0.799370 0.355822 0.580445 0.422722 0.331311 0.303086 0.719070 0.358363 0.271793 0.536603 0.398218 0.531961 1.079560 -0.018325 0.308186 0.467533 0.278661 0.227877 0.049948 0.502056 1.576849 -1.448033 0.456407 -0.025200 0.001214 0.140844 -0.030005 0.220639 0.664565 -1.137666 2.116390 -0.052215 0.000000 0.000000 -4.181997 4.619306 7.951908 -1.799850 2.085512 -0.059161 -2.130077 3.321890 -8.261019 0.630941 6.958373 -14.881669 -0.820001 0.526501 -0.168789 32.235462 -2.664974 12.737921 0.721498 0.000000 0.000000 23.752634 9.991139 16.756979
-0.051770 -0.958546 -1.105260 2.081739 -0.865960 -1.535319 0.494553 0.254006 0.661423 0.461314 -0.372558 10.563113 -4.722740 -0.387512 -1.298938 -0.810657 6.198922 2.955503 0.379306 -0.937842 -0.204607 1.760565 0.435942 -0.556515 4.019244 1.253716 0.374098 -0.115533 -0.339163 2.061477 0.398346 -4.040948 11.278593 0.632205 1.090230 3.207586 0.878944 0.411909 0.758492 0.369306 0.597803 0.391383 0.315062 0.338249 0.674457 0.309573 0.241175 0.446519 0.400308 0.512968 1.123642 -0.028464 0.292242 0.474706 0.245513 0.201234 0.039470 0.176265 1.648123 -1.690624 0.477868 -0.108677 -0.012652 0.141232 -0.043807 0.080236 0.706693 -1.600763 2.338045 -0.082283 0.000000 0.000000 -5.457808 4.809685 8.812930 -2.222940 2.444521 -0.091528 -2.865919 4.392850 -8.603252 -0.026396 7.472568 -18.361435 -1.062170 0.588893 -0.547805 36.370125 -4.354509 11.962817 0.775397 0.000000 0.000000 25.039337 10.087525 17.014795
-0.062858 -1.187680 -1.455755 2.397111 -1.168080 -1.916088 0.582152 0.243616 0.768413 0.569768 -0.392362 12.325976 -5.314741 -0.459804 -1.624978 -1.042421 7.154258 3.139246 0.391298 -1.059355 -0.201651 1.743159 0.391313 -0.930187 4.230769 1.122714 -0.278078 -0.260166 -0.623826 1.914335 0.347937 -5.527032 12.193323 0.615086 0.938145 3.759738 0.765787 0.401206 0.656960 0.362695 0.584263 0.311012 0.267643 0.368509 0.575918 0.221778 0.183972 0.275274 0.377966 0.444304 1.098841 -0.061624 0.257604 0.451765 0.177576 0.150883 0.023120 -0.344812 1.651905 -2.098319 0.459655 -0.219832 -0.033220 0.136830 -0.067784 -0.159418 0.702235 -2.276816 2.501837 -0.128138 0.000000 0.000000 -6.930495 4.417202 9.189697 -2.738913 2.724367 -0.146106 -4.030565 5.055605 -9.628036 -1.397203 7.387642 -22.333776 -1.372803 0.605082 -1.347654 37.615635 -7.406335 8.221667 0.753863 0.000000 0.000000 22.839840 8.155493 13.210262
